<svg xmlns="http://www.w3.org/2000/svg" xmlns:xlink="http://www.w3.org/1999/xlink"><defs><style>
    .sprite-symbol-usage {display: none;}
    .sprite-symbol-usage:target {display: inline;}
  </style><symbol viewBox="0 0 512 512" id="css"><path d="M512 256c0 82.317-38.86 155.564-99.234 202.397C369.455 492.001 315.068 512 256 512s-113.455-19.999-156.766-53.603C38.86 411.564 0 338.317 0 256 0 114.615 114.615 0 256 0s256 114.615 256 256z" fill="#f2f2f2" /><path d="M441.992 119.474l-29.226 338.923C369.455 492.001 315.068 512 256 512s-113.455-19.999-156.766-53.603L70.008 119.474h371.984z" fill="#006bc0" /><path fill="#0096dc" d="M255.997 151.338v353.958l122.272-34.519 27.276-319.439z" /><path fill="#fff" d="M364.036 289.787H275.85l92.149-46.897 3.982-47.144H140.013l4.059 48.065h93.117l-89.344 44.673 4.157 49.239h159.374l-5.224 58.643-50.155 13.584-52.245-14.629-1.306-36.571h-48.668l6.088 72.098 96.131 27.167 96.13-27.167 11.912-141.069z" /><g fill="#222123"><path d="M165.352 67.224V33.787h48.065V15.676h-65.48v69.659h65.48V67.224zM241.542 42.93v-8.36h47.805V15.676h-65.481v43.188h46.933v8.36h-46.933v18.111h65.481V42.93zM316.252 42.93v-8.36h47.804V15.676h-65.48v43.188h46.933v8.36h-46.933v18.111h65.48V42.93z" /></g></symbol><symbol viewBox="0 0 512 512" id="github"><path d="M512 256c0 127.969-93.895 234.005-216.555 252.98-2.769.428-5.559.815-8.359 1.149a255.316 255.316 0 01-27.429 1.839 212.221 212.221 0 01-7.314.001 255.333 255.333 0 01-27.429-1.839c-2.8-.334-5.59-.721-8.359-1.149C93.895 490.005 0 383.969 0 256 0 114.615 114.615 0 256 0s256 114.615 256 256z" fill="#f2f2f2" /><g fill="#222123"><path d="M512 256c0 9.644-.533 19.163-1.578 28.536-.115 1.045-.23 2.1-.355 3.145a260.565 260.565 0 01-2.456 15.778 133.643 133.643 0 01-.596 3.072c-18.098 90.436-83.832 163.652-169.942 192.355-12.978 2.508-17.586-5.465-17.586-12.288 0-8.432.293-35.997.293-70.249 0-23.886-8.182-39.466-17.356-47.407 44.335-4.932 90.425-19.122 108.711-71.471a90.026 90.026 0 001.045-3.124 129.234 129.234 0 002.748-9.979c.24-1.034.481-2.079.7-3.145 2.393-11.337 3.689-24.137 3.689-38.599 0-27.941-9.937-50.782-26.352-68.712 2.664-6.447 11.431-32.486-2.508-67.751 0 0-21.462-6.875-70.332 26.248-20.459-5.674-42.371-8.516-64.125-8.62-21.755.104-43.656 2.947-64.084 8.62-48.912-33.123-70.416-26.248-70.416-26.248-13.897 35.265-5.13 61.304-2.476 67.751-16.374 17.93-26.384 40.772-26.384 68.712 0 14.451 1.296 27.251 3.699 38.588.219 1.066.449 2.111.69 3.145a129.47 129.47 0 003.804 13.113c18.275 52.255 64.24 66.644 108.45 71.67-7.325 6.395-13.96 17.69-16.259 34.241-14.608 6.541-51.66 17.847-74.491-21.285 0 0-13.542-24.576-39.246-26.384 0 0-24.984-.324-1.745 15.559 0 0 16.771 7.879 28.421 37.46 0 0 15.026 45.693 86.246 30.208.115 21.389.345 41.556.345 47.658 0 6.76-4.692 14.691-17.492 12.319C88.9 470.235 23.092 397.009 4.984 306.531v-.01a97.26 97.26 0 01-.585-3.062 245.69 245.69 0 01-2.456-15.778c-.136-1.045-.251-2.09-.366-3.145A257.683 257.683 0 010 256C0 114.615 114.636 0 256 0c141.375 0 256 114.615 256 256z" /><path d="M94.678 363.698c-1.849-.878-3.856-.512-4.409.794-.596 1.275.439 3.009 2.299 3.845 1.829.878 3.824.502 4.389-.773.647-1.275-.419-3.03-2.279-3.866zM106.6 373.802c-1.682-1.776-3.992-2.309-5.245-1.181-1.243 1.149-.93 3.542.742 5.319 1.62 1.787 4.012 2.32 5.235 1.191 1.275-1.15.94-3.522-.732-5.329zM117.457 387.709c-1.609-2.257-4.138-3.239-5.716-2.152-1.609 1.097-1.609 3.824-.042 6.102 1.588 2.278 4.148 3.302 5.726 2.205 1.599-1.108 1.599-3.845.032-6.155zM129.849 401.575c-2.205-2.1-5.214-2.529-6.635-.982-1.4 1.546-.784 4.483 1.452 6.541 2.194 2.111 5.183 2.529 6.583.982 1.495-1.536.816-4.482-1.4-6.541zM146.139 411.136c-2.926-.909-5.82.042-6.416 2.058-.585 2.027 1.306 4.378 4.2 5.256 2.905.846 5.778-.063 6.405-2.069.597-2.037-1.294-4.367-4.189-5.245zM165.742 414.187c-3.062.052-5.465 1.776-5.465 3.908.031 2.079 2.508 3.793 5.569 3.72 3.041-.031 5.507-1.787 5.433-3.897.001-2.09-2.497-3.794-5.537-3.731zM190.777 414.605c-.387-2.1-3.103-3.333-6.123-2.811-2.978.543-5.13 2.664-4.754 4.775.376 2.038 3.124 3.312 6.102 2.769 3.02-.564 5.131-2.674 4.775-4.733z" /></g></symbol><symbol viewBox="0 0 434.147 434.147" id="sprite"><path d="M27.336 14.372l28.177 360.474a13.333 13.333 0 009.263 11.67l148.268 47.008c2.622.831 5.437.831 8.059 0l148.268-47.008a13.333 13.333 0 009.263-11.67l28.177-360.474C407.417 6.622 401.292 0 393.519 0H40.629c-7.773 0-13.898 6.622-13.293 14.372zm307.217 111.843H150.918l5.542 51.105h174.099L319.17 323.013l-102.096 32.369-102.096-32.369-5.95-76.116h53.588v37.336l55.89 15 55.556-15 4.31-59.503H107.295L95.937 79.419H338.21l-3.657 46.796z" fill="#fc490b" /></symbol></defs><use id="css-usage" xlink:href="#css" class="sprite-symbol-usage" /><use id="github-usage" xlink:href="#github" class="sprite-symbol-usage" /><use id="sprite-usage" xlink:href="#sprite" class="sprite-symbol-usage" /></svg>